<svg xmlns="http://www.w3.org/2000/svg" version="1.1" xmlns:xlink="http://www.w3.org/1999/xlink" xmlns:svgjs="http://svgjs.dev/svgjs" width="2000" height="601" viewBox="0 0 2000 601"><g transform="matrix(1,0,0,1,-1.2121212121212466,-0.8220835549170147)"><svg viewBox="0 0 396 119" data-background-color="#236b13" preserveAspectRatio="xMidYMid meet" height="601" width="2000" xmlns="http://www.w3.org/2000/svg" xmlns:xlink="http://www.w3.org/1999/xlink"><g id="tight-bounds" transform="matrix(1,0,0,1,0.2400000000000091,0.16277527959255167)"><svg viewBox="0 0 395.52 118.67444944081493" height="118.67444944081493" width="395.52"><g><svg viewBox="0 0 395.52 118.67444944081493" height="118.67444944081493" width="395.52"><g><svg viewBox="0 0 565.1161075411055 169.5611926895658" height="118.67444944081493" width="395.52"><g><rect width="7.108252460347894" height="169.5611926895658" x="143.8798643468626" y="0" fill="#ffffff" opacity="1" stroke-width="0" stroke="transparent" fill-opacity="1" class="rect-yte-0" data-fill-palette-color="primary" rx="1%" id="yte-0" data-palette-color="#ffffff"></rect></g><g transform="matrix(1,0,0,1,169.5961075411055,0.4217940116655825)"><svg viewBox="0 0 395.52 168.71760466623462" height="168.71760466623462" width="395.52"><g id="textblocktransform"><svg viewBox="0 0 395.52 168.71760466623462" height="168.71760466623462" width="395.52" id="textblock"><g><svg viewBox="0 0 395.52 168.71760466623462" height="168.71760466623462" width="395.52"><g transform="matrix(1,0,0,1,0,0)"><svg width="395.52" viewBox="0.6299999999999999 -31.88 214.3 88.01" height="168.71760466623462" data-palette-color="#ffffff"><svg></svg><svg></svg><g class="wordmark-text-0" data-fill-palette-color="primary" id="text-0"><path d="M18.37 0.63v0c-2.267 0-4.387-0.423-6.36-1.27-1.967-0.847-3.697-2.017-5.19-3.51-1.493-1.493-2.657-3.217-3.49-5.17-0.833-1.96-1.25-4.063-1.25-6.31v0c0-2.24 0.423-4.34 1.27-6.3 0.847-1.953 2.017-3.677 3.51-5.17 1.493-1.493 3.223-2.663 5.19-3.51 1.967-0.847 4.083-1.27 6.35-1.27v0c2.227 0 4.31 0.413 6.25 1.24 1.947 0.82 3.66 1.947 5.14 3.38v0l-1.14 4.79c-1.067-1.707-2.497-3.077-4.29-4.11-1.793-1.033-3.78-1.55-5.96-1.55v0c-2.287 0-4.353 0.563-6.2 1.69-1.84 1.12-3.303 2.623-4.39 4.51-1.087 1.887-1.63 3.987-1.63 6.3v0c0 2.273 0.54 4.357 1.62 6.25 1.073 1.9 2.53 3.417 4.37 4.55 1.84 1.133 3.907 1.7 6.2 1.7v0c1.293 0 2.527-0.153 3.7-0.46 1.167-0.313 2.237-0.76 3.21-1.34v0-8.2h-8.61v-3.54h12.43v13.75c-1.413 1.18-3.053 2.067-4.92 2.66-1.86 0.593-3.797 0.89-5.81 0.89zM39.72 0h-3.75v-20.83h3.47v3.82c0.747-1.227 1.733-2.207 2.96-2.94 1.227-0.727 2.683-1.09 4.37-1.09v0l0.94 3.75c-0.44-0.14-0.95-0.21-1.53-0.21v0c-1.947 0-3.51 0.62-4.69 1.86-1.18 1.24-1.77 3.003-1.77 5.29v0zM61.11 0.42v0c-2.013 0-3.853-0.487-5.52-1.46-1.667-0.973-2.993-2.283-3.98-3.93-0.98-1.64-1.47-3.457-1.47-5.45v0c0-2.013 0.49-3.837 1.47-5.47 0.987-1.627 2.313-2.927 3.98-3.9 1.667-0.973 3.507-1.46 5.52-1.46v0c2.04 0 3.887 0.487 5.54 1.46 1.653 0.973 2.973 2.273 3.96 3.9 0.98 1.633 1.47 3.457 1.47 5.47v0c0 1.993-0.49 3.81-1.47 5.45-0.987 1.647-2.307 2.957-3.96 3.93-1.653 0.973-3.5 1.46-5.54 1.46zM61.11-3.13v0c1.347 0 2.563-0.327 3.65-0.98 1.087-0.66 1.953-1.54 2.6-2.64 0.647-1.1 0.97-2.323 0.97-3.67v0c0-1.34-0.323-2.56-0.97-3.66-0.647-1.1-1.513-1.98-2.6-2.64-1.087-0.66-2.303-0.99-3.65-0.99v0c-1.34 0-2.553 0.33-3.64 0.99-1.093 0.66-1.963 1.54-2.61 2.64-0.647 1.1-0.97 2.32-0.97 3.66v0c0 1.347 0.323 2.57 0.97 3.67 0.647 1.1 1.517 1.98 2.61 2.64 1.087 0.653 2.3 0.98 3.64 0.98zM82.67 0.42v0c-1.06 0-2.2-0.203-3.42-0.61-1.213-0.407-2.26-1.083-3.14-2.03v0l1.04-4.1c0.653 1.087 1.487 1.95 2.5 2.59 1.02 0.633 2.11 0.95 3.27 0.95v0c1.107 0 1.94-0.27 2.5-0.81 0.553-0.547 0.83-1.213 0.83-2v0c0-0.9-0.297-1.56-0.89-1.98-0.587-0.413-1.113-0.703-1.58-0.87v0l-2.81-1.07c-0.507-0.213-1.12-0.52-1.84-0.92-0.713-0.407-1.337-0.993-1.87-1.76-0.533-0.76-0.8-1.753-0.8-2.98v0c0-1.113 0.267-2.133 0.8-3.06 0.533-0.927 1.283-1.66 2.25-2.2 0.973-0.547 2.12-0.82 3.44-0.82v0c1.04 0 2.13 0.187 3.27 0.56 1.133 0.367 2.093 0.99 2.88 1.87v0l-1.04 4.1c-0.56-1.02-1.313-1.83-2.26-2.43-0.947-0.607-1.93-0.91-2.95-0.91v0c-0.953 0-1.7 0.267-2.24 0.8-0.547 0.533-0.82 1.147-0.82 1.84v0c0 0.56 0.187 1.06 0.56 1.5 0.367 0.44 0.92 0.797 1.66 1.07v0l2.82 1.08c0.507 0.187 1.137 0.487 1.89 0.9 0.753 0.42 1.42 1.023 2 1.81 0.573 0.787 0.86 1.85 0.86 3.19v0c0 1.873-0.653 3.39-1.96 4.55-1.307 1.16-2.957 1.74-4.95 1.74zM100.38 0.42v0c-1.067 0-2.207-0.203-3.42-0.61-1.213-0.407-2.26-1.083-3.14-2.03v0l1.04-4.1c0.647 1.087 1.48 1.95 2.5 2.59 1.02 0.633 2.11 0.95 3.27 0.95v0c1.107 0 1.94-0.27 2.5-0.81 0.553-0.547 0.83-1.213 0.83-2v0c0-0.9-0.297-1.56-0.89-1.98-0.587-0.413-1.113-0.703-1.58-0.87v0l-2.81-1.07c-0.507-0.213-1.12-0.52-1.84-0.92-0.72-0.407-1.343-0.993-1.87-1.76-0.533-0.76-0.8-1.753-0.8-2.98v0c0-1.113 0.267-2.133 0.8-3.06 0.527-0.927 1.277-1.66 2.25-2.2 0.973-0.547 2.12-0.82 3.44-0.82v0c1.04 0 2.127 0.187 3.26 0.56 1.14 0.367 2.103 0.99 2.89 1.87v0l-1.05 4.1c-0.553-1.02-1.303-1.83-2.25-2.43-0.953-0.607-1.937-0.91-2.95-0.91v0c-0.953 0-1.7 0.267-2.24 0.8-0.547 0.533-0.82 1.147-0.82 1.84v0c0 0.56 0.187 1.06 0.56 1.5 0.367 0.44 0.92 0.797 1.66 1.07v0l2.81 1.08c0.513 0.187 1.147 0.487 1.9 0.9 0.753 0.42 1.417 1.023 1.99 1.81 0.58 0.787 0.87 1.85 0.87 3.19v0c0 1.873-0.653 3.39-1.96 4.55-1.307 1.16-2.957 1.74-4.95 1.74zM116.46 0h-3.75v-20.83h3.75zM114.58-24.58v0c-0.693 0-1.283-0.243-1.77-0.73-0.487-0.487-0.73-1.077-0.73-1.77v0c0-0.72 0.243-1.317 0.73-1.79 0.487-0.473 1.077-0.71 1.77-0.71v0c0.72 0 1.317 0.237 1.79 0.71 0.473 0.473 0.71 1.07 0.71 1.79v0c0 0.693-0.237 1.283-0.71 1.77-0.473 0.487-1.07 0.73-1.79 0.73z" fill="#ffffff" fill-rule="nonzero" stroke="none" stroke-width="1" stroke-linecap="butt" stroke-linejoin="miter" stroke-miterlimit="10" stroke-dasharray="" stroke-dashoffset="0" font-family="none" font-weight="none" font-size="none" text-anchor="none" style="mix-blend-mode: normal" data-fill-palette-color="primary" opacity="1"></path><path transform="translate(0,45.71)" d="M4.62 0h-3.99l13.22-32.29h0.07l13.23 32.29h-4.2l-3.68-9.27h-10.94zM12.12-18.75l-2.47 6.18h8.3l-2.46-6.18c-0.307-0.787-0.597-1.563-0.87-2.33-0.28-0.76-0.56-1.673-0.84-2.74v0c-0.273 1.067-0.537 1.977-0.79 2.73-0.26 0.747-0.55 1.527-0.87 2.34zM34.86 10.42h-3.75v-31.25h3.47v2.74c0.953-0.947 2.053-1.687 3.3-2.22 1.253-0.533 2.597-0.8 4.03-0.8v0c1.92 0 3.663 0.48 5.23 1.44 1.56 0.96 2.81 2.25 3.75 3.87 0.933 1.62 1.4 3.413 1.4 5.38v0c0 1.967-0.467 3.763-1.4 5.39-0.94 1.62-2.19 2.91-3.75 3.87-1.567 0.96-3.31 1.44-5.23 1.44v0c-1.367 0-2.65-0.243-3.85-0.73-1.207-0.487-2.273-1.16-3.2-2.02v0zM41.42-3.13v0c1.32 0 2.52-0.327 3.6-0.98 1.073-0.66 1.93-1.54 2.57-2.64 0.633-1.1 0.95-2.323 0.95-3.67v0c0-1.34-0.317-2.56-0.95-3.66-0.64-1.1-1.497-1.98-2.57-2.64-1.08-0.66-2.28-0.99-3.6-0.99v0c-1.32 0-2.517 0.33-3.59 0.99-1.073 0.66-1.93 1.54-2.57 2.64-0.633 1.1-0.95 2.32-0.95 3.66v0c0 1.347 0.317 2.57 0.95 3.67 0.64 1.1 1.497 1.98 2.57 2.64 1.073 0.653 2.27 0.98 3.59 0.98zM66.42 0.28v0c-1.893 0-3.627-0.48-5.2-1.44-1.58-0.96-2.837-2.25-3.77-3.87-0.94-1.627-1.41-3.423-1.41-5.39v0c0-1.967 0.47-3.76 1.41-5.38 0.933-1.62 2.19-2.91 3.77-3.87 1.573-0.96 3.307-1.44 5.2-1.44v0c1.44 0 2.79 0.267 4.05 0.8 1.26 0.533 2.353 1.273 3.28 2.22v0-2.74h3.47v20.83h-3.47v-2.74c-0.927 0.927-2.02 1.66-3.28 2.2-1.26 0.547-2.61 0.82-4.05 0.82zM66.91-3.13v0c1.32 0 2.517-0.327 3.59-0.98 1.08-0.66 1.937-1.54 2.57-2.64 0.64-1.1 0.96-2.323 0.96-3.67v0c0-1.34-0.32-2.56-0.96-3.66-0.633-1.1-1.49-1.98-2.57-2.64-1.073-0.66-2.27-0.99-3.59-0.99v0c-1.32 0-2.517 0.33-3.59 0.99-1.08 0.66-1.937 1.54-2.57 2.64-0.64 1.1-0.96 2.32-0.96 3.66v0c0 1.347 0.32 2.57 0.96 3.67 0.633 1.1 1.49 1.98 2.57 2.64 1.073 0.653 2.27 0.98 3.59 0.98zM87.64 0h-3.75v-20.83h3.47v3.82c0.74-1.227 1.723-2.207 2.95-2.94 1.227-0.727 2.687-1.09 4.38-1.09v0l0.94 3.75c-0.44-0.14-0.95-0.21-1.53-0.21v0c-1.947 0-3.51 0.62-4.69 1.86-1.18 1.24-1.77 3.003-1.77 5.29v0zM105.69 0h-3.75v-17.71h-4.72v-3.12h4.83v-6.95h3.54v6.95h5.17v3.12h-5.07zM118.89 0h-3.75v-20.83h3.47v2.98c0.767-1.133 1.733-1.983 2.9-2.55 1.167-0.567 2.4-0.85 3.7-0.85v0c1.413 0 2.71 0.33 3.89 0.99 1.18 0.66 2.127 1.58 2.84 2.76v0c0.813-1.253 1.863-2.19 3.15-2.81 1.28-0.627 2.64-0.94 4.08-0.94v0c1.573 0 3.013 0.37 4.32 1.11 1.307 0.74 2.347 1.777 3.12 3.11 0.78 1.333 1.17 2.9 1.17 4.7v0 12.33h-3.75v-11.88c0-1.893-0.54-3.333-1.62-4.32-1.073-0.98-2.317-1.47-3.73-1.47v0c-0.88 0-1.73 0.197-2.55 0.59-0.82 0.393-1.493 1.007-2.02 1.84-0.52 0.833-0.78 1.92-0.78 3.26v0 11.98h-3.75v-11.88c0-1.313-0.26-2.4-0.78-3.26-0.52-0.853-1.19-1.497-2.01-1.93-0.82-0.427-1.67-0.64-2.55-0.64v0c-0.86 0-1.7 0.197-2.52 0.59-0.82 0.393-1.497 1.007-2.03 1.84-0.533 0.833-0.8 1.933-0.8 3.3v0zM163.96 0.42v0c-2.18 0-4.13-0.487-5.85-1.46-1.727-0.973-3.08-2.3-4.06-3.98-0.987-1.673-1.48-3.543-1.48-5.61v0c0-1.967 0.473-3.753 1.42-5.36 0.953-1.607 2.233-2.887 3.84-3.84 1.607-0.947 3.383-1.42 5.33-1.42v0c1.92 0 3.68 0.457 5.28 1.37 1.593 0.913 2.867 2.147 3.82 3.7 0.947 1.553 1.42 3.313 1.42 5.28v0 1.52h-13.61c-0.6 0-1.213-0.02-1.84-0.06-0.627-0.047-1.24-0.117-1.84-0.21v0c0.253 1.847 1.093 3.397 2.52 4.65 1.42 1.247 3.113 1.87 5.08 1.87v0c1.32 0 2.547-0.3 3.68-0.9 1.14-0.6 2.057-1.397 2.75-2.39v0l1.04 4.27c-0.993 0.807-2.133 1.437-3.42 1.89-1.287 0.453-2.647 0.68-4.08 0.68zM156.28-12.19v0c1.253-0.207 2.517-0.31 3.79-0.31v0h6.91c0.507 0 1.01 0.017 1.51 0.05 0.5 0.033 1.003 0.073 1.51 0.12v0c-0.327-1.62-1.137-2.957-2.43-4.01-1.293-1.053-2.763-1.58-4.41-1.58v0c-1.687 0-3.167 0.563-4.44 1.69-1.273 1.12-2.087 2.467-2.44 4.04zM182.43 0h-3.75v-20.83h3.47v3.36c0.767-1.227 1.757-2.163 2.97-2.81 1.213-0.647 2.527-0.97 3.94-0.97v0c1.48 0 2.853 0.363 4.12 1.09 1.26 0.733 2.283 1.787 3.07 3.16 0.787 1.38 1.18 3.053 1.18 5.02v0 11.98h-3.75v-11.46c0-1.64-0.493-3.093-1.48-4.36-0.98-1.26-2.36-1.89-4.14-1.89v0c-1.46 0-2.763 0.527-3.91 1.58-1.147 1.053-1.72 2.577-1.72 4.57v0zM209.86 0h-3.75v-17.71h-4.72v-3.12h4.83v-6.95h3.54v6.95h5.17v3.12h-5.07z" fill="#ffffff" fill-rule="nonzero" stroke="none" stroke-width="1" stroke-linecap="butt" stroke-linejoin="miter" stroke-miterlimit="10" stroke-dasharray="" stroke-dashoffset="0" font-family="none" font-weight="none" font-size="none" text-anchor="none" style="mix-blend-mode: normal" data-fill-palette-color="primary" opacity="1"></path></g></svg></g></svg></g></svg></g></svg></g><g transform="matrix(1,0,0,1,0,22.355082618276093)"><svg viewBox="0 0 125.27187361296758 124.8510274530136" height="124.8510274530136" width="125.27187361296758"><g><svg xmlns="http://www.w3.org/2000/svg" xmlns:xlink="http://www.w3.org/1999/xlink" version="1.1" x="0" y="0" viewBox="5.3 5.5 89.3 89" enable-background="new 0 0 100 100" xml:space="preserve" height="124.8510274530136" width="125.27187361296758" class="icon-icon-0" data-fill-palette-color="accent" id="icon-0"><g display="none" fill="#ffffff" data-fill-palette-color="accent"><g display="inline" fill="#ffffff" data-fill-palette-color="accent"><path d="M77.1 58.9C79.8 38.9 61.7 17.1 54 7.8 53.2 6.8 52 6.3 50.9 6.3 50.3 6.3 49.7 6.4 49.2 6.7 47.5 7.5 46.6 9.3 46.9 11.2 49.5 25 48.2 32.6 46.1 35.2 45.8 35.5 45.5 35.9 45.1 35.9 44.8 35.9 44.1 35.6 43.5 34.8 42.3 33.3 41.8 30.9 42.3 28.5 42.4 28.2 42.4 27.9 42.4 27.5 42.4 25.3 40.6 23.5 38.5 23.4H38C37.3 23.4 36.6 23.7 36 24.1 35.7 24.3 35.5 24.5 35.2 24.8L35.1 24.9C25.7 36.3 21.4 49.2 23.1 60.4 24.1 67.1 27.3 72.8 32.2 77.1 27.8 77.3 24.3 81 24.3 85.4 24.3 90 28 93.7 32.6 93.7H68.2C72.8 93.7 76.5 90 76.5 85.4S72.8 77.1 68.2 77.1H67.3C72.9 71.9 76.2 65.8 77.1 58.9M38.2 27.4C36.8 34.4 40.9 39.8 45 39.8 49.9 39.8 55 32.1 50.9 10.3 62.4 24.3 88.8 57.2 61 76.7 61 76.7 71.3 65.2 56.4 50.3 58.3 65.4 51.8 74.2 46 74.2 42.3 74.2 38.9 70.6 38.1 62.8 35.5 71.2 36.5 72.9 37.6 76.1 22.5 66.3 23.4 45.4 38.2 27.4M72.3 85.3C72.3 87.6 70.4 89.5 68.1 89.5H32.5C30.2 89.5 28.3 87.6 28.3 85.3S30.2 81.1 32.5 81.1H68.1C70.4 81.1 72.3 83 72.3 85.3M51.1 77C52.5 76.2 53.8 75.2 55 73.8 57.4 71.1 59.1 67.5 60 63.4 61.7 69.7 58.2 73.7 58 73.9 57.2 74.8 56.9 75.9 57 77z" fill="#ffffff" data-fill-palette-color="accent"></path><circle cx="33.6" cy="85.3" r="3.3" fill="#ffffff" data-fill-palette-color="accent"></circle><circle cx="44.7" cy="85.3" r="3.3" fill="#ffffff" data-fill-palette-color="accent"></circle><circle cx="55.8" cy="85.3" r="3.3" fill="#ffffff" data-fill-palette-color="accent"></circle><circle cx="66.9" cy="85.3" r="3.3" fill="#ffffff" data-fill-palette-color="accent"></circle></g></g><g display="none" fill="#ffffff" data-fill-palette-color="accent"><path display="inline" d="M94.2 30.4C94.2 29.8 94.1 29.5 94.1 29.4 93.9 28.8 93.3 28.5 92.7 28.7S91.8 29.5 92 30V30.4C92 30.9 91.9 31.7 91.1 32.8 90.9 32.5 90.7 32.3 90.5 32.1 89.6 31.3 88.5 30.9 87.4 30.9 86.4 30.9 85.3 31.2 84.7 32.1 84.2 32.6 84 33.3 84 34 84 35.7 85.3 37.5 87.4 37.5 88.1 37.5 88.9 37.3 89.7 36.9 89.7 37.1 89.6 37.3 89.6 37.6 89.3 38.5 88.7 39 87.8 39.4 87 39.7 86 39.8 85.3 39.8H84.9C82.9 36.4 80.1 33.5 76.6 31 74.1 29.2 71.2 27.7 68.1 26.4 68.3 25.7 68.3 25 68.3 24.3 68.3 19.1 64.1 14.9 58.9 14.9 54.1 14.9 50.1 18.5 49.6 23.2 42.9 23.3 36.6 24.6 31.2 27 27.4 24.8 24.3 24.3 22.2 24.3S18.8 24.9 18.6 25L16 26.1 18.3 27.7C20 28.8 21 29.7 21.6 30.4S22.3 31.5 22.3 31.6C22.3 31.8 22.1 32.2 21.3 32.9 18.7 35.3 16.5 38 15 41L14.9 41.1C13.9 43.1 12.9 44.6 12 45.4 11 46.3 10.2 46.6 9.5 46.6 9.1 46.6 8.6 46.5 8.1 46.2L5.7 45V61.6L7.8 61.1S8 61 8.5 61C9 60.9 9.7 60.8 10.5 60.8 12.8 60.8 15.8 61.4 18 64.2L18.1 64.3C20.8 67.6 24.5 70.4 28.9 72.6 28.8 73.4 28.6 74.6 28.3 75.9 27.8 78.3 26.7 81.1 25.4 82.3L22.6 85.1H41.3L41.1 83.3V82.1C41.1 81.1 41.2 79.7 41.5 78.6 41.8 77.6 42.2 77.1 42.7 76.8 45.1 77.2 47.6 77.4 50.3 77.4 55.5 77.4 60.5 76.6 65 75.3 66.3 78.5 66.4 82.9 66.4 83.5V83.6L66.5 85.2H81.9L80.8 82.9C79.6 80.4 78.8 76.6 78.3 73.5 78.1 72 77.9 70.6 77.8 69.6 77.8 69.3 77.8 69.1 77.7 68.9 83.9 64.1 87.9 57.6 87.9 50.3 87.9 47.3 87.2 44.5 86.1 41.9 86.9 41.9 87.8 41.7 88.8 41.3 90 40.8 91.3 39.8 91.8 38.1 92 37.2 92.1 36.5 92.1 35.8V35.1C93.8 33.3 94.3 31.5 94.2 30.4M89.5 34.5C88.6 35.1 88 35.3 87.5 35.3 86.7 35.3 86.3 34.7 86.2 34 86.2 33.8 86.3 33.5 86.4 33.4 86.5 33.2 86.9 33 87.4 33 88.2 33.1 89.1 33.4 89.5 34.5 89.5 34.4 89.5 34.4 89.5 34.5M54.8 24.2C54.8 24 54.9 23.9 54.9 23.9L55.5 23.7C55.2 21.5 55.9 20.1 57.7 19.7 58.5 19.5 59.2 19.5 59.9 19.8 60.6 20 61 20.5 61.1 21.1 61.2 21.3 61.1 21.5 61 21.7S60.8 22 60.6 22C60.4 22.1 60.2 22 60.1 22 60 21.9 59.8 21.8 59.7 21.6 59.5 21.3 59.3 21.2 59.1 21 58.9 20.9 58.6 20.9 58.2 21 57.7 21.1 57.4 21.4 57.3 21.8 57.1 22.2 57.1 22.7 57.2 23.4L59.2 22.9C59.3 22.9 59.3 22.9 59.4 23V23.4C59.4 23.6 59.3 23.7 59.3 23.7L57.5 24.2 57.7 24.8C57.7 25 57.8 25.1 57.8 25.2L59.8 24.7C59.9 24.7 59.9 24.7 60 24.8V25.2C60 25.4 59.9 25.5 59.9 25.5L58.1 26C58.6 27.4 59.3 28 60.1 27.8 60.4 27.7 60.7 27.6 60.9 27.4S61.3 26.8 61.3 26.2C61.4 25.8 61.4 25.6 61.5 25.5S61.7 25.3 61.8 25.3C62 25.2 62.3 25.3 62.4 25.4 62.6 25.5 62.7 25.7 62.8 25.9 63 26.5 62.8 27.1 62.4 27.8 61.9 28.5 61.3 28.9 60.5 29.1S58.9 29.2 58.2 28.8 56.9 27.6 56.4 26.5L55.6 26.7C55.5 26.7 55.5 26.7 55.4 26.6V26.2C55.4 26 55.5 25.9 55.5 25.9L56 25.8 55.9 25.6C55.9 25.4 55.8 25.2 55.7 24.8L55 24.7C54.9 24.7 54.9 24.7 54.8 24.6zM75.1 66.8C75 66.9 74.8 67 74.5 67.5 74.4 67.7 74.3 67.9 74.3 68.2V68.3L74.6 71.2C74.9 74 75.5 78.3 76.8 82H69.5C69.4 79.8 68.9 75.8 67.2 72.6L66.5 71.4 65.2 71.8C60.7 73.3 55.6 74.2 50.2 74.2 47.6 74.2 45.3 74 42.9 73.6H42.4L42 73.7C39.9 74.4 38.9 76.2 38.4 77.8 37.9 79.3 37.8 80.8 37.8 82H29.6C30.5 80.3 31 78.5 31.4 76.8 31.8 75.2 32 73.7 32.1 72.8L34.3 71.7 31.2 70.3C26.8 68.2 23.1 65.5 20.5 62.3L20.4 62.2C17.3 58.4 13.1 57.6 10.4 57.7 9.9 57.7 9.4 57.7 8.9 57.8V50H9.4C11.1 50 12.8 49.2 14.1 47.9 15.5 46.6 16.6 44.9 17.7 42.7L17.8 42.6C19.1 40 21 37.6 23.4 35.5 24.4 34.6 25.5 33.5 25.5 31.7 25.5 30.5 24.9 29.4 24.1 28.3 23.9 28.1 23.7 27.8 23.4 27.6 25 27.8 27.2 28.5 30 30.2L30.8 30.7 31.6 30.3C36.8 27.9 43 26.5 49.7 26.5 49.9 27.4 50.3 28.3 50.8 29.2 45.8 29.1 40.3 30.1 35 33.2 35 33.2 42.4 31 52.4 31.2 53.3 31.2 54.2 31.2 55.1 31.3S56.9 31.4 57.9 31.5H58C58.9 31.6 59.9 31.7 60.8 31.9H60.9C61.9 32.1 62.8 32.2 63.8 32.4 65.3 32.7 66.9 33.1 68.4 33.6 68.4 33.6 66.9 32.8 64.5 31.9 65.4 31.2 66.1 30.4 66.7 29.5 69.6 30.6 72.3 32.1 74.6 33.7 80.8 38.1 84.4 44 84.4 50.4 84.5 56.6 81 62.4 75.1 66.8M74.3 68.4C74.3 68.3 74.3 68.3 74.3 68.4 74.3 68.3 74.3 68.3 74.3 68.4 74.3 68.3 74.3 68.3 74.3 68.4M23.4 40.9C21.3 40.9 19.6 42.6 19.6 44.7S21.3 48.5 23.4 48.5 27.2 46.8 27.2 44.7C27.1 42.6 25.4 40.9 23.4 40.9" fill="#ffffff" data-fill-palette-color="accent"></path></g><g display="none" fill="#ffffff" data-fill-palette-color="accent"><path display="inline" d="M94.6 63.2L87.4 22.3C87 19.8 84.8 18.1 82.4 18.1 82.1 18.1 81.8 18.1 81.5 18.2L9.5 30.9C7 31.3 5.3 33.5 5.3 35.9 5.3 36.2 5.3 36.5 5.4 36.8L12.6 77.7C13 80.2 15.2 81.9 17.6 81.9 17.9 81.9 18.2 81.9 18.5 81.8L90.4 69.1C92.9 68.7 94.6 66.5 94.6 64.1zM89.9 66.2L18 78.8H17.6C16.6 78.8 15.7 78.1 15.6 77.1L8.4 36.2V35.8C8.4 34.8 9.1 33.9 10.1 33.8L82 21.2H82.4C83.4 21.2 84.3 21.9 84.4 22.9L91.6 63.8V64.2C91.6 65.1 90.9 66 89.9 66.2M22.7 64.5L53 59.2C54.1 59 54.8 58 54.6 56.9S53.4 55.1 52.3 55.3L22 60.6C20.9 60.8 20.2 61.8 20.4 62.9 20.6 63.9 21.4 64.6 22.4 64.6 22.5 64.6 22.6 64.5 22.7 64.5M29.4 39.9C29.2 38.9 28.2 38.2 27.2 38.4L17.5 40.1C16.5 40.3 15.8 41.3 16 42.3zM29.6 40.9L16.2 43.3 16.4 44.5 29.8 42.1zM30.3 45.1L16.9 47.5 17.1 48.9 30.5 46.5zM31.1 49.6L17.7 52C17.9 53 18.9 53.7 19.9 53.5L29.6 51.8C30.6 51.6 31.3 50.6 31.1 49.6M30 43.1L16.6 45.5 16.8 46.5 30.2 44.1zM30.8 47.5L17.4 49.9 17.6 51 31 48.6zM83.4 58.4L23.5 69C22.4 69.2 21.7 70.2 21.9 71.3 22.1 72.3 22.9 73 23.9 73H24.2L84.1 62.4C85.2 62.2 85.9 61.2 85.7 60.1 85.5 58.9 84.5 58.2 83.4 58.4M71.9 42.3C72 42.9 72.2 43.4 72.6 43.7 72.9 43.9 73.2 44 73.6 44H74.1L77.7 43.4C78.3 43.3 78.9 43.2 79.4 43S80.3 42.6 80.7 42.4C81.3 42 81.8 41.4 82.1 40.8 82.3 40.3 82.4 39.9 82.4 39.4 82.4 39.2 82.4 38.9 82.3 38.7 82.1 37.4 81.3 36.5 80.1 36 80.6 35.4 80.9 34.7 80.9 33.9 80.9 33.7 80.9 33.5 80.8 33.3 80.7 32.9 80.6 32.5 80.4 32.2S80 31.6 79.6 31.3C79.3 31 79 30.8 78.6 30.7 78.2 30.5 77.7 30.5 77.3 30.5H77.2C76.8 30.5 76.3 30.6 75.7 30.7L71.9 31.4C71.3 31.5 70.8 31.7 70.5 32.1 70.3 32.4 70.2 32.7 70.2 33.1 70.2 33.3 70.2 33.5 70.3 33.7zM78.3 38.2C78.6 38.3 78.7 38.5 78.8 39V39.3C78.8 39.9 78.4 40.3 77.1 40.6L75.1 41 74.7 38.6 76.7 38.3C77 38.2 77.3 38.2 77.6 38.2 77.9 38.1 78.2 38.1 78.3 38.2M75.3 33.5C75.8 33.4 76.2 33.4 76.5 33.4 76.7 33.4 76.9 33.4 77.1 33.5S77.5 33.7 77.6 34.2V34.4C77.6 34.5 77.6 34.6 77.5 34.7 77.4 35 77.3 35.1 77.1 35.2S76.5 35.5 75.9 35.6L74.2 35.9 73.8 33.9zM59 41.9C59.2 42.4 59.5 42.9 59.8 43.4S60.5 44.3 60.9 44.6C61.4 45 61.8 45.3 62.4 45.5 62.9 45.7 63.5 45.8 64 45.8H64.4C64.9 45.8 65.4 45.8 65.9 45.7 66.8 45.5 67.5 45.3 68.2 44.9 68.8 44.5 69.3 44 69.7 43.5 70 43 70.3 42.4 70.4 41.9 70.5 41.6 70.5 41.3 70.5 41V40.5C70.4 40.1 70.2 39.7 69.8 39.5 69.5 39.3 69.2 39.2 68.9 39.2H68.6C68.2 39.3 67.8 39.5 67.6 39.9 67.4 40.2 67.4 40.5 67.3 40.9 67.2 41.5 67 42 66.6 42.3 66.3 42.6 65.8 42.9 65.2 43H64.7C64.4 43 64.1 42.9 63.8 42.8 63.4 42.6 63 42.3 62.7 41.8S62.1 40.6 62 39.8C61.9 39.3 61.9 38.9 61.9 38.5 61.9 37.8 62 37.2 62.3 36.8 62.7 36.1 63.2 35.7 64.1 35.5H64.6C64.9 35.5 65.2 35.6 65.4 35.7 65.8 35.9 66.2 36.2 66.5 36.7 66.8 37 67 37.3 67.3 37.5 67.5 37.6 67.8 37.7 68 37.7H68.4C68.8 37.6 69.2 37.4 69.4 37 69.6 36.7 69.7 36.4 69.7 36.1V35.8C69.6 35.2 69.2 34.6 68.7 34 68.1 33.4 67.4 33 66.5 32.8 66 32.6 65.4 32.6 64.8 32.6 64.4 32.6 64 32.6 63.6 32.7 62.8 32.8 62 33.1 61.3 33.6 60.6 34 60 34.6 59.6 35.3 59.1 36 58.8 36.8 58.7 37.6 58.6 38 58.6 38.4 58.6 38.8 58.6 39.3 58.6 39.8 58.7 40.4 58.6 40.8 58.8 41.4 59 41.9" fill="#ffffff" data-fill-palette-color="accent"></path></g><g display="none" fill="#ffffff" data-fill-palette-color="accent"><path display="inline" d="M65.8 12.9L66.3 11.7C66.7 10.7 66.2 9.6 65.2 9.3 64.2 8.9 63.1 9.5 62.8 10.4L62.4 11.6C57.9 10.2 53.3 9.5 48.8 9.5 30.5 9.5 13.3 20.8 6.6 39V39.1C6.4 39.6 6.5 40 6.6 40.5V40.6C6.8 41.1 7.2 41.4 7.7 41.6 8.1 41.8 8.6 41.8 9 41.6H9.1C9.4 41.4 9.7 41.2 9.9 40.9 10 40.8 10 40.7 10 40.6 10.1 40.4 11.2 40 12.7 40 14.4 40 16.8 40.4 19.2 41.3S23.6 43.3 24.9 44.4C26.3 45.5 26.7 46.6 26.7 46.7 26.6 47 26.6 47.3 26.6 47.6 26.6 47.7 26.7 47.9 26.7 48 26.8 48.2 26.9 48.3 27 48.4 27.2 48.6 27.5 48.8 27.8 48.9 28.3 49.1 28.8 49 29.3 48.8S30.1 48.2 30.3 47.7C30.4 47.5 31.5 47.1 33 47.1 34.7 47.1 37.1 47.5 39.5 48.4S43.9 50.4 45.2 51.5C46.6 52.6 47 53.7 47 53.8L42.6 65.8 42.5 65.7C42.1 65.5 41.6 65.5 41.2 65.5 39.6 65.5 38.2 66.5 37.6 68L34.5 76.6C33.9 78.2 32.3 79.3 30.6 79.3 30.1 79.3 29.6 79.2 29.2 79 27.1 78.2 25.9 75.8 26.7 73.7 27.2 72.2 27.2 70.6 26.5 69.2S24.7 66.7 23.2 66.2C22.6 66 21.9 65.8 21.2 65.8 18.7 65.8 16.5 67.3 15.7 69.6 12.7 77.8 17 86.9 25.2 89.9 27 90.5 28.8 90.9 30.6 90.9 37.2 90.9 43.2 86.7 45.5 80.5L48.6 71.9C49.3 69.9 48.3 67.7 46.3 67H46.1L50.4 55.1C50.5 54.9 51.6 54.5 53.1 54.5 54.8 54.5 57.2 54.9 59.6 55.8S64 57.8 65.3 58.9C66.7 60 67.1 61.1 67.1 61.2 66.8 62.2 67.3 63.3 68.3 63.6 69.3 64 70.4 63.4 70.7 62.5 70.8 62.3 71.9 61.9 73.4 61.9 75.1 61.9 77.5 62.3 79.9 63.2S84.3 65.2 85.6 66.3C87 67.4 87.4 68.5 87.4 68.6 87.1 69.6 87.6 70.7 88.6 71 88.8 71.1 89 71.1 89.2 71.1 90 71.1 90.7 70.6 91 69.8 92.8 64.7 93.7 59.5 93.7 54.4 93.7 36.6 83 19.9 65.8 12.9M41.8 79.2C40 84.1 35.4 87.1 30.5 87.1 29.1 87.1 27.7 86.9 26.4 86.4 20.1 84.1 16.9 77.2 19.2 70.9 19.5 70.1 20.3 69.6 21.1 69.6 21.3 69.6 21.6 69.6 21.8 69.7 22.9 70.1 23.4 71.3 23 72.3 21.5 76.4 23.6 81 27.8 82.5 28.7 82.8 29.6 83 30.5 83 33.8 83 36.8 81 38 77.8L41.1 69.2 45 70.6zM88.7 63.9C88.5 63.7 88.2 63.5 88 63.3 86.2 61.9 83.9 60.5 81.2 59.6 78.4 58.6 75.7 58.1 73.4 58.1 72.2 58.1 71.1 58.2 70.1 58.6 69.5 57.7 68.7 56.8 67.8 56 66 54.5 63.7 53.2 61 52.3 58.2 51.3 55.5 50.8 53.2 50.8 52 50.8 50.9 50.9 49.9 51.3 49.3 50.4 48.5 49.5 47.6 48.7 45.8 47.3 43.5 45.9 40.8 45 38 44 35.3 43.5 33 43.5 31.8 43.5 30.7 43.6 29.7 44 29.1 43.1 28.3 42.2 27.4 41.4 25.6 39.9 23.3 38.6 20.6 37.7 17.8 36.7 15.1 36.2 12.8 36.2H12C19 21.8 33.4 13.2 48.7 13.2 53.4 13.2 58.1 14 62.8 15.7 79.5 21.8 89.9 37.6 89.9 54.4 89.9 57.5 89.5 60.7 88.7 63.9M31.9 40.3S39.5 20.4 56.4 17.6C56.4 17.6 38.8 17.6 31.9 40.3M70.7 55.3C81.9 34.4 69.4 21.9 69.4 21.9 79.3 35.9 70.7 55.3 70.7 55.3" fill="#ffffff" data-fill-palette-color="accent"></path></g><g display="none" fill="#ffffff" data-fill-palette-color="accent"><path display="inline" d="M45.6 60.5C43.6 59.7 41.3 60.6 40.4 62.6 39.6 64.6 40.5 66.9 42.5 67.8 44.5 68.6 46.8 67.7 47.7 65.7S47.7 61.4 45.6 60.5M41.6 70.1C39.6 69.3 37.3 70.2 36.4 72.2 35.6 74.2 36.5 76.5 38.5 77.4 40.5 78.2 42.8 77.3 43.7 75.3S43.7 71 41.6 70.1M38.9 46.5C36.9 45.7 34.6 46.6 33.7 48.6 32.9 50.6 33.8 52.9 35.8 53.8 37.8 54.6 40.1 53.7 41 51.7 41.9 49.6 40.9 47.3 38.9 46.5M31 65.7C29 64.9 26.7 65.8 25.8 67.8 25 69.8 25.9 72.1 27.9 73 29.9 73.8 32.2 72.9 33.1 70.9 33.9 68.9 33 66.5 31 65.7M34.9 56.1C32.9 55.3 30.6 56.2 29.7 58.2 28.9 60.2 29.8 62.5 31.8 63.4 33.8 64.2 36.1 63.3 37 61.3 37.9 59.2 37 56.9 34.9 56.1M49.6 50.9C47.6 50.1 45.3 51 44.4 53 43.6 55 44.5 57.3 46.5 58.2 48.5 59 50.8 58.1 51.7 56.1 52.6 54 51.6 51.7 49.6 50.9M52.3 74.6C50.3 73.8 48 74.7 47.1 76.7 46.3 78.7 47.2 81 49.2 81.9 51.2 82.7 53.5 81.8 54.4 79.8 55.3 77.7 54.4 75.4 52.3 74.6M70.2 28.3L51 20.3C48.4 19.2 45.4 20.5 44.3 23.1L38.5 37.2C37.4 39.8 38.7 42.8 41.3 43.9L60.5 51.9C63.1 53 66.1 51.7 67.2 49.1L73 35C74.1 32.4 72.9 29.4 70.2 28.3M44.1 29.5S44.5 28.6 45.5 26.2 49.1 22.4 52.7 23.9 68.2 30.3 68.2 30.3C47.7 23.1 44.1 29.5 44.1 29.5M76.3 19.8L76.2 19.7 53.3 10.2C46.2 7.3 38.1 10.6 35.1 17.7L16.7 62.2C13.8 69.3 17.1 77.4 24.2 80.4L46.7 89.7C53.8 92.6 61.9 89.3 64.9 82.2L83.3 37.7C86.2 30.8 83.1 22.9 76.3 19.8M61.5 80.8C59.3 86 53.3 88.5 48.1 86.3L25.6 77C20.4 74.8 17.9 68.8 20.1 63.6L38.5 19.1C40.7 13.9 46.7 11.4 51.9 13.5L74.8 23C79.8 25.3 82.1 31.1 80 36.2zM60.3 55.3C58.3 54.5 56 55.4 55.1 57.4 54.3 59.4 55.2 61.7 57.2 62.6 59.2 63.4 61.5 62.5 62.4 60.5S62.3 56.2 60.3 55.3M56.3 64.9C54.3 64.1 52 65 51.1 67 50.3 69 51.2 71.3 53.2 72.2 55.2 73 57.5 72.1 58.4 70.1S58.4 65.8 56.3 64.9" fill="#ffffff" data-fill-palette-color="accent"></path></g><g display="none" fill="#ffffff" data-fill-palette-color="accent"><path display="inline" d="M29.6 63.8C26.7 63.8 24.4 66.1 24.4 69S26.7 74.2 29.6 74.2 34.8 71.9 34.8 69 32.5 63.8 29.6 63.8M74.7 63.8C71.8 63.8 69.5 66.1 69.5 69S71.8 74.2 74.7 74.2 79.9 71.9 79.9 69 77.5 63.8 74.7 63.8M60.2 24.9H52.9C48.8 24.9 46.1 27.4 45 30.3 44.1 32.7 42.7 36.2 42.7 37.8S44 40.6 45.5 40.6H60.2C61.8 40.6 63 39.3 63 37.8V27.8C63 26.2 61.8 24.9 60.2 24.9M60.5 44.6H55.6C54.7 44.6 54 45.3 54 46.2S54.7 47.8 55.6 47.8H60.5C61.4 47.8 62.1 47.1 62.1 46.2S61.4 44.6 60.5 44.6M94.4 62.1L86.2 26.5C85.1 22.1 80.9 18.8 76.4 18.7H50.5C46 18.8 41.4 21.7 39.5 25.7L36.6 31.9C35.3 34.8 31.2 38 28.1 38.6L17.6 40.7C13.2 41.6 9.3 45.5 8.3 49.8L5.6 62.1C5.5 62.7 5.4 63.3 5.4 63.8 5.4 65.7 6.1 67.4 7.4 68.6S10.4 70.5 12.4 70.5H17.4C18.1 76.6 23.3 81.3 29.6 81.3S41.1 76.6 41.8 70.5H62.4C63.1 76.6 68.3 81.3 74.6 81.3S86.1 76.6 86.8 70.5H87.6C89.6 70.5 91.3 69.8 92.6 68.6S94.6 65.7 94.6 63.8C94.6 63.3 94.6 62.7 94.4 62.1M29.6 78.3C24.5 78.3 20.3 74.1 20.3 69S24.5 59.7 29.6 59.7 38.9 63.9 38.9 69C38.9 74.2 34.7 78.3 29.6 78.3M74.7 78.3C69.6 78.3 65.4 74.1 65.4 69S69.6 59.7 74.7 59.7 84 63.9 84 69C84 74.2 79.8 78.3 74.7 78.3M87.7 67.5H86.9C86.2 61.4 81 56.7 74.7 56.7S63.2 61.4 62.5 67.5H41.8C41.1 61.4 35.9 56.7 29.6 56.7S18.1 61.4 17.4 67.5H12.4C9.9 67.4 8.5 66 8.4 63.8 8.4 63.5 8.4 63.1 8.5 62.7L11.3 50.4C11.9 47.4 15.3 44.1 18.3 43.6L28.8 41.5C33.1 40.6 37.5 37.1 39.4 33.2L42.3 27C43.5 24.2 47.6 21.6 50.6 21.7H76.5C79.5 21.6 82.8 24.3 83.4 27.2L91.6 62.8C91.7 63.2 91.7 63.6 91.7 63.9 91.6 66 90.2 67.5 87.7 67.5" fill="#ffffff" data-fill-palette-color="accent"></path></g><g display="none" fill="#ffffff" data-fill-palette-color="accent"><path display="inline" d="M86.4 12.7H13.6C10.9 12.7 8.8 14.8 8.8 17.5V60.4C8.8 63.1 10.9 65.2 13.6 65.2H37.9V75.6H31.9C28.9 75.6 26.5 78 26.5 81V81.9C26.5 84.9 28.9 87.3 31.9 87.3H68.1C71.1 87.3 73.5 84.9 73.5 81.9V81C73.5 78 71.1 75.6 68.1 75.6H62.1V65.1H86.4C89.1 65.1 91.2 62.9 91.2 60.3V17.5C91.2 14.8 89.1 12.7 86.4 12.7M68.1 79.1C69.1 79.1 70 79.9 70 81V81.9C70 82.9 69.2 83.8 68.1 83.8H31.9C30.9 83.8 30 83 30 81.9V81C30 80 30.9 79.1 31.9 79.1zM41.4 75.5V65.1H58.6V75.5zM87.7 60.3C87.7 61 87.1 61.6 86.4 61.6H13.6C12.9 61.6 12.3 61 12.3 60.3V17.4C12.3 16.7 12.9 16.1 13.6 16.1H86.5C87.2 16.1 87.8 16.7 87.8 17.4V60.3zM23.2 43.9L36 22.3H22.1C20.4 22.3 19.1 23.7 19.1 25.3V52.4C19.1 54.1 20.5 55.4 22.1 55.4H25.6L35.5 39.5zM77.9 22.3H41.9L34.7 34.4 47.5 29.9 31.6 55.5H77.9C79.6 55.5 80.9 54.1 80.9 52.5V25.3C80.9 23.7 79.6 22.3 77.9 22.3" fill="#ffffff" data-fill-palette-color="accent"></path></g><g fill="#ffffff" data-fill-palette-color="accent"><path d="M92.5 42.5C92.3 41.1 91.5 40 90.4 39.2L53 12.5C52.1 11.9 51.1 11.5 50 11.5S47.9 11.8 47 12.5L39.7 17.7V16.2C39.7 14 37.9 12.2 35.7 12.2H28.8C26.6 12.2 24.8 14 24.8 16.2V28.3L9.6 39.2C8.5 40 7.7 41.2 7.5 42.5 7.3 43.9 7.6 45.2 8.4 46.3 9.4 47.6 10.9 48.5 12.6 48.5 13.7 48.5 14.7 48.2 15.6 47.5L15.9 47.3V86.6C15.9 87.1 16.1 87.5 16.4 87.9 16.7 88.2 17.2 88.4 17.7 88.4H82.4C82.9 88.4 83.3 88.2 83.7 87.9 84 87.6 84.2 87.1 84.2 86.6V47.3L84.5 47.5C85.4 48.1 86.4 48.5 87.5 48.5 89.2 48.5 90.7 47.7 91.7 46.3 92.4 45.2 92.7 43.8 92.5 42.5M28.4 16.2C28.4 15.9 28.6 15.7 28.9 15.7H35.8C36.1 15.7 36.3 15.9 36.3 16.2V20.2L28.5 25.8V16.2zM57.5 84.9H42.5V61.5C42.5 61.2 42.7 61 43 61H57C57.3 61 57.5 61.2 57.5 61.5zM80.6 84.9H61V61.5C61 59.3 59.2 57.5 57 57.5H43C40.8 57.5 39 59.3 39 61.5V84.9H19.4V44.8L50 23 80.6 44.8zM88.7 44.3C88.4 44.7 87.9 45 87.4 45 87.1 45 86.8 44.9 86.5 44.7L50 18.7 13.5 44.7C13.2 44.9 12.9 45 12.6 45 12.1 45 11.6 44.8 11.3 44.3 10.8 43.6 11 42.6 11.7 42.1L49.1 15.5C49.4 15.3 49.7 15.2 50 15.2S50.6 15.3 50.9 15.5L88.3 42C89 42.6 89.2 43.5 88.7 44.3M46.2 71.6C44.9 71.6 43.8 72.7 43.8 74S44.9 76.4 46.2 76.4 48.6 75.3 48.6 74 47.5 71.6 46.2 71.6M40.8 42C40.8 47.1 44.9 51.2 50 51.2S59.2 47.1 59.2 42 55.1 32.8 50 32.8 40.8 36.9 40.8 42M56.2 42C56.2 45.4 53.4 48.2 50 48.2S43.8 45.4 43.8 42 46.6 35.8 50 35.8C53.4 35.7 56.2 38.5 56.2 42" fill="#ffffff" data-fill-palette-color="accent"></path></g><g display="none" fill="#ffffff" data-fill-palette-color="accent"><path display="inline" d="M48.5 54.2L68 20.4C68.6 19.4 68.2 18.2 67.3 17.6 67 17.4 66.6 17.3 66.3 17.3 65.6 17.3 64.9 17.7 64.5 18.3L45 52.1zM78.3 14.7C77 14 75.6 13.5 74.1 13.4 73.3 12.4 72.3 11.5 71.1 10.8 69.8 10.1 68.4 9.6 67 9.5 66.2 8.5 65.2 7.5 64 6.9 62.5 6 60.8 5.5 59 5.5 55.4 5.5 52 7.4 50.2 10.6L30.7 44.4H30C28 44.4 26 45.4 25 47.3L20 56C19.5 56.9 19.2 57.9 19.2 58.9 19.2 60.9 20.2 62.9 22.1 64L23.4 64.7 22.9 71.2C21.9 71.6 21.1 72.5 20.7 73.6L20.4 74C20.2 74.5 20.2 74.9 20.2 75.4 20.2 75.6 20.2 75.9 20.3 76.1 19.6 76.5 19 77.2 18.7 78L18.5 78.5C18.3 78.9 18.3 79.4 18.3 79.8V80.4C17.7 80.8 17.1 81.4 16.9 82.2L16.8 82.6C16.7 83 16.6 83.4 16.6 83.8 16.6 85.5 17.6 86.9 19.1 87.7L20.1 88.2C20.8 89.8 22.2 91.3 24.1 92.4 26.4 93.7 28.9 94.1 30.7 93.6L31.5 94C32.2 94.3 32.9 94.5 33.7 94.5 34.9 94.5 36.2 94 37 92.8L37.2 92.4C37.5 91.9 37.7 91.3 37.7 90.7 38.4 90.4 39.1 89.9 39.6 89.2L39.9 88.8C40.3 88.2 40.5 87.5 40.5 86.9 41.3 86.6 42.1 86.1 42.7 85.2L43 84.7C43.3 84.2 43.5 83.7 43.6 83.1L48.9 79.5 50.1 80.2C51 80.7 52 81 53 81 55 81 57 80 58 78.1L63 69.4C63.5 68.5 63.8 67.5 63.8 66.5 63.8 65 63.2 63.6 62.2 62.5L82 28.6C84.8 23.8 83.2 17.5 78.3 14.7M66.2 13.3C67.1 13.3 68.1 13.5 69 14 69.1 14 69.2 14.1 69.3 14.1 72.2 15.8 73.2 19.5 71.5 22.4L52 56.2 41.4 50.1 60.9 16.4C62.1 14.4 64.1 13.3 66.2 13.3M34.4 46L53.7 12.6C54.8 10.6 56.9 9.5 59 9.5 60 9.5 61.1 9.8 62.1 10.3 60.4 11.1 59 12.3 58 13.8 57.7 14 57.5 14.2 57.3 14.5L37.9 48.1 32.9 45.2zM35.1 91L34.9 91.4C34.7 91.7 34.3 91.9 33.7 91.9 33.4 91.9 33 91.8 32.7 91.7L20.3 85.4C19.6 85.1 19.2 84.3 19.2 83.8 19.2 83.7 19.2 83.6 19.3 83.5L19.4 83.1C19.5 82.7 19.8 82.5 20.4 82.5 20.6 82.5 20.9 82.6 21.2 82.7L21.4 82.8H21.5L34.5 89.3C35.1 89.6 35.4 90.1 35.4 90.5 35.3 90.7 35.2 90.8 35.1 91M37.9 87.4L37.6 87.8C37.4 88.2 36.8 88.4 36.2 88.4 35.9 88.4 35.5 88.3 35.2 88.2L35 88.1H34.9L21.9 81.6C21.2 81.2 20.8 80.5 20.8 79.9 20.8 79.7 20.8 79.6 20.9 79.5L21.1 79C21.3 78.5 21.7 78.2 22.3 78.2 22.6 78.2 22.8 78.3 23.1 78.4L23.3 78.5S23.4 78.5 23.4 78.6L37.2 85.5C37.8 85.8 38.1 86.4 38.1 86.8 38.1 87 38 87.2 37.9 87.4M41.1 82.8C41.1 82.9 41 83 41 83.1V83.2L40.7 83.7C40.4 84.2 39.7 84.5 39.1 84.5 38.8 84.5 38.4 84.4 38.1 84.3L37.9 84.2S37.8 84.2 37.8 84.1L24.1 77.2C23.4 76.8 23 76.1 23 75.4 23 75.2 23 75 23.1 74.9L23.3 74.4C23.5 73.9 23.9 73.6 24.4 73.5H24.7C25 73.5 25.2 73.6 25.5 73.7L40.1 81C40.8 81.3 41.1 81.9 41.1 82.5 41.2 82.6 41.2 82.7 41.1 82.8M59.8 67.4L54.8 76.1C54.5 76.7 53.9 77 53.3 77 53 77 52.7 76.9 52.4 76.8L50 75.4C49.3 75 48.5 75 47.8 75.5L42.2 79.3 42 79.1C41.8 78.9 41.6 78.8 41.3 78.7L41 78.5 27 70.4 27.5 63.7C27.6 62.9 27.2 62.2 26.5 61.8L24.2 60.4C23.6 60.1 23.3 59.5 23.3 58.9 23.3 58.6 23.4 58.3 23.5 58L28.5 49.3C28.8 48.7 29.4 48.4 30 48.4 30.3 48.4 30.6 48.5 30.9 48.6L59.1 65C59.7 65.3 60 65.9 60 66.5 60 66.8 59.9 67.1 59.8 67.4M78.5 26.6L59.1 60.3 55.6 58.3 75 24.5C75.2 24.2 75.3 23.8 75.3 23.5 76.1 21.8 76.3 19.9 76.1 18.1 76.2 18.1 76.3 18.2 76.3 18.2 79.2 19.9 80.2 23.7 78.5 26.6" fill="#ffffff" data-fill-palette-color="accent"></path></g><g display="none" fill="#ffffff" data-fill-palette-color="accent"><path display="inline" d="M93.7 22.5C93.4 20 91.2 18.1 88.7 18.1H88.1L76.9 19.5C74.6 19.8 72.8 21.6 72.5 23.8L71.8 28.7H7.8C7.3 28.7 6.8 28.9 6.5 29.3S6.1 30.2 6.2 30.7L12.7 59.5C12.9 60.3 13.6 60.8 14.3 60.8H67.4L67 64.1H19.2C16.4 64.1 14.2 66.4 14.2 69.2S16.5 74.2 19.2 74.2H20.8C20.2 75 19.9 76 19.9 77.1 19.9 79.8 22.1 82 24.8 82S29.7 79.8 29.7 77.1C29.7 76 29.3 75 28.8 74.2H59.4C58.8 75 58.5 76 58.5 77.1 58.5 79.8 60.7 82 63.4 82S68.3 79.8 68.3 77.1C68.3 76 67.9 75 67.4 74.2H71.6C74.1 74.2 76.3 72.3 76.6 69.8L82 29 89.3 28.1C92.1 27.8 94.1 25.3 93.7 22.5M69.2 48.1H60.1V41.1H70.2zM46.2 39.1H36.4V32H46.2zM48.2 32.1H58V39.2H48.2zM46.2 41.1V48.1H36.4V41.1zM34.4 39.1H24.6V32H34.4zM34.4 41.1V48.1H24.6V41.1zM34.4 50.1V57.5H24.6V50.1zM36.4 50.1H46.2V57.5H36.4zM48.2 50.1H58V57.5H48.2zM48.2 48.1V41.1H58V48.1zM70.4 39.1H60.1V32H71.4zM22.6 32.1V39.2H11.6L10 32.1zM12 41.1H22.5V48.1H13.5zM14.1 50.1H22.6V57.5H15.7zM60.1 57.5V50.1H68.9L67.9 57.5zM88.9 24.8L79 26 73 69.4C72.9 70.2 72.2 70.9 71.3 70.9H19.2C18.3 70.9 17.5 70.1 17.5 69.2S18.3 67.5 19.2 67.5H69.9L75.9 24.3C76 23.5 76.6 23 77.4 22.9L88.6 21.5H88.8C89.6 21.5 90.4 22.1 90.5 23 90.5 23.8 89.9 24.7 88.9 24.8" fill="#ffffff" data-fill-palette-color="accent"></path></g></svg></g></svg></g></svg></g></svg></g><defs></defs></svg><rect width="395.52" height="118.67444944081493" fill="none" stroke="none" visibility="hidden"></rect></g></svg></g></svg>